<?xml version="1.0" encoding="utf-8"?>
<!-- eye-closed.svg - icono ojo cerrado -->
<svg xmlns="http://www.w3.org/2000/svg" viewBox="0 0 24 24" width="24" height="24" role="img" aria-hidden="true">
  <title>Ocultar</title>
  <path fill="currentColor" d="M2 2l20 20-1.4 1.4L17.5 20A11 11 0 0 1 12 21c-7 0-11-7-11-7a19.3 19.3 0 0 1 3.2-4.6L.6 3.4 2 2zm7.1 7.1A3 3 0 0 0 12 15a3 3 0 0 0 2.9-3.9L9.1 9.1zM12 5c2.2 0 4.2.7 5.9 1.9l-1.6 1.6A8.9 8.9 0 0 0 12 7c-1.3 0-2.6.3-3.8.8L6.5 6.2A18.5 18.5 0 0 1 12 5z"/>
</svg>
